<?xml version="1.0" encoding="utf-8"?>
<!-- Generator: Adobe Illustrator 24.0.3, SVG Export Plug-In . SVG Version: 6.00 Build 0)  -->
<svg version="1.1" id="Layer_2" xmlns="http://www.w3.org/2000/svg" xmlns:xlink="http://www.w3.org/1999/xlink" x="0px" y="0px"
	 viewBox="0 0 32 32" style="enable-background:new 0 0 32 32;" xml:space="preserve">
<style type="text/css">
	.st0{enable-background:new    ;}
	.st1{fill:#CED4D9;}
</style>
<g id="Rounded_Rectangle_2_2_" class="st0">
	<g>
		<g id="Rounded_Rectangle_1_2_">
			<g>
				<path class="st1" d="M26.2,0.2H5.6c-2.1,0-3.9,1.7-3.9,3.9V28c0,2.1,1.7,3.9,3.9,3.9h20.8c2.1,0,3.9-1.7,3.9-3.9V4.2
					C30.3,2,28.4,0.2,26.2,0.2z M29.2,28c0,1.6-1.3,2.9-2.9,2.9H5.6c-1.6,0-2.9-1.3-2.9-2.9V4.2c0-1.6,1.3-2.9,2.9-2.9h20.8
					c1.6,0,2.9,1.3,2.9,2.9V28H29.2z"/>
			</g>
		</g>
		<g id="Rounded_Rectangle_1_copy_2_">
			<g>
				<path class="st1" d="M27.9,0.2H4c-1.4,0-2.4,1.1-2.4,2.4v1.9h28.7V2.7C30.4,1.4,29.3,0.2,27.9,0.2z M4.2,3.3
					C3.8,3.3,3.3,3,3.3,2.4s0.5-0.8,0.9-0.8S5.1,2,5.1,2.5S4.7,3.3,4.2,3.3z M6.6,3.3C6.2,3.3,5.8,3,5.8,2.5s0.4-0.9,0.8-0.9
					S7.5,2,7.5,2.5C7.5,3,7.2,3.3,6.6,3.3z M9.1,3.3C8.6,3.3,8.2,3,8.2,2.4s0.4-0.9,0.9-0.9S10,1.8,10,2.4S9.6,3.3,9.1,3.3z"/>
			</g>
		</g>
		<g class="st0">
			<path class="st1" d="M8.4,17.7l2.6-6.5h1.4l2.5,6.5h-1.3l-0.5-1.3h-3l-0.5,1.3H8.4z M10.5,15.4h2.3l-1.2-3.1L10.5,15.4z"/>
			<path class="st1" d="M15.6,17.7v-6.5h2.9c0.7,0,1.2,0.2,1.5,0.6c0.4,0.4,0.6,0.9,0.6,1.5s-0.2,1.1-0.6,1.4
				c-0.4,0.4-0.9,0.6-1.5,0.6h-1.7v2.4H15.6z M16.7,14.2h1.6c0.3,0,0.6-0.1,0.8-0.3c0.2-0.2,0.3-0.4,0.3-0.7s-0.1-0.6-0.3-0.7
				c-0.2-0.2-0.5-0.3-0.8-0.3h-1.6V14.2z"/>
			<path class="st1" d="M21.5,17.7v-6.5h1.1v6.5H21.5z"/>
		</g>
		<g id="Rounded_Rectangle_2_3_">
			<g>
				<path class="st1" d="M23.5,20.6c0-0.3-0.2-0.5-0.5-0.5H7.4c-0.3,0-0.5,0.2-0.5,0.5s0.2,0.5,0.5,0.5h15.5
					C23.3,21.1,23.5,20.9,23.5,20.6z M23,22.6H12.3c-0.3,0-0.5,0.2-0.5,0.5s0.2,0.5,0.5,0.5h10.8c0.3,0,0.5-0.2,0.5-0.5
					C23.5,22.8,23.3,22.6,23,22.6z M23,25.1h-5.9c-0.3,0-0.5,0.2-0.5,0.5s0.2,0.5,0.5,0.5H23c0.3,0,0.5-0.2,0.5-0.5
					S23.3,25.1,23,25.1z"/>
			</g>
		</g>
	</g>
</g>
</svg>
