<?xml version="1.0" encoding="utf-8"?>
<!-- Generator: Adobe Illustrator 24.0.3, SVG Export Plug-In . SVG Version: 6.00 Build 0)  -->
<svg version="1.1" id="Layer_1" xmlns="http://www.w3.org/2000/svg" xmlns:xlink="http://www.w3.org/1999/xlink" x="0px" y="0px"
	 viewBox="0 0 32 32" style="enable-background:new 0 0 32 32;" xml:space="preserve">
<style type="text/css">
	.st0{fill:none;stroke:#CED4D9;stroke-miterlimit:10;}
</style>
<g>
	<path class="st0" d="M31.1,6.1l-2.3-2.3c-0.6-0.6-1.4-0.6-2,0L17.5,13c-0.6,0.6-1.4,0.6-1.9,0.2c-0.6-0.6-0.8-1.4-0.5-2.2
		c0.5-1.3,0.8-3.8-1.3-6.6c-2.2-2.8-4.5-2.8-6.3-2.8C6.9,1.8,6.7,2.4,7.2,3L10,6.1c0.6,0.6,0.5,1.4-0.2,1.9L7,10.5
		c-0.6,0.6-1.4,0.5-2-0.2L2,7.2C1.4,6.7,0.7,6.8,0.7,7.6C0.5,9,0.5,10.7,1.8,12.4c2.5,3.5,5.1,3.5,6.6,3.2c0.8-0.2,1.7,0,2.2,0.6
		l2.2,2c0.6,0.6,0.6,1.3,0,1.9l-4,3.9c-0.6,0.6-1.2,0.8-1.6,0.6c-0.5-0.3-1.1,0.2-1.3,0.8l-1.7,2.8c-0.5,0.8-0.5,1.5-0.2,2
		c0.5,0.5,1.1,0.5,1.7,0l3.1-2c0.8-0.5,1.1-1.1,0.8-1.3c-0.3-0.5-0.2-1.2,0.4-1.6l4-4c0.6-0.6,1.4-0.6,2,0l9.2,8.6
		c0.6,0.6,1.4,0.5,1.9-0.2l1.9-2c0.6-0.6,0.5-1.4-0.2-1.9l-7.1-6.6c-0.6-0.6-0.6-1.3-0.2-1.9l9-9.4C31.5,7.5,31.5,6.5,31.1,6.1z"/>
	<circle class="st0" cx="25.9" cy="26.5" r="1.2"/>
</g>
</svg>
