<?xml version="1.0" encoding="utf-8"?>
<!-- Generator: Adobe Illustrator 24.0.3, SVG Export Plug-In . SVG Version: 6.00 Build 0)  -->
<svg version="1.1" id="Layer_1" xmlns="http://www.w3.org/2000/svg" xmlns:xlink="http://www.w3.org/1999/xlink" x="0px" y="0px"
	 viewBox="0 0 32 32" style="enable-background:new 0 0 32 32;" xml:space="preserve">
<style type="text/css">
	.st0{fill:#FFFFFF;}
</style>
<path class="st0" d="M29,0H3C2,0,1,1,1,2.1v27.8c0,1,1,2.1,2,2.1h18.8v-8.5c0-0.6,0.4-1,1-1H31V2.1C31,1.1,30,0,29,0z M24.1,13.3
	c-0.3,0-0.6-0.1-0.8-0.2l-4.6,4.7c0.1,0.2,0.2,0.5,0.2,0.7c0,0.9-0.8,1.7-1.7,1.7s-1.7-0.8-1.7-1.7c0-0.3,0.1-0.5,0.2-0.7l-2.3-2.3
	c-0.2,0.1-0.4,0.2-0.7,0.2s-0.5-0.1-0.8-0.2l-2.3,2.4c0.1,0.2,0.1,0.4,0.1,0.7c0,0.9-0.8,1.7-1.7,1.7s-1.7-0.8-1.7-1.7
	s0.8-1.7,1.7-1.7c0.3,0,0.5,0.1,0.8,0.2l2.3-2.3c-0.1-0.2-0.2-0.5-0.2-0.7c0-0.9,0.8-1.7,1.7-1.7s1.7,0.8,1.7,1.7
	c0,0.3-0.1,0.5-0.2,0.7l2.3,2.3c0.2-0.1,0.5-0.2,0.8-0.2s0.5,0.1,0.7,0.2l4.7-4.7c-0.1-0.2-0.2-0.4-0.2-0.7c0-0.9,0.8-1.7,1.7-1.7
	s1.7,0.8,1.7,1.7C25.8,12.5,25,13.3,24.1,13.3z"/>
<path class="st0" d="M31,24.6h-7v7L31,24.6z"/>
</svg>
