<?xml version="1.0" encoding="utf-8"?>
<!-- Generator: Adobe Illustrator 24.0.3, SVG Export Plug-In . SVG Version: 6.00 Build 0)  -->
<svg version="1.1" id="Layer_1" xmlns="http://www.w3.org/2000/svg" xmlns:xlink="http://www.w3.org/1999/xlink" x="0px" y="0px"
	 viewBox="0 0 32 32" style="enable-background:new 0 0 32 32;" xml:space="preserve">
<style type="text/css">
	.st0{fill:none;stroke:#CED4D9;stroke-miterlimit:10;}
</style>
<g>
	<path class="st0" d="M2.8,0.6H12c1.4,0,2,1.1,2,2V12c0,1.2-1.1,2-2,2H2.6c-1.4,0-2-1.1-2-2V2.6C0.5,1.4,1.4,0.6,2.8,0.6z"/>
	<path class="st0" d="M20.1,0.6h9.4c1.2,0,2,1.1,2,2V12c0,1.2-1.1,2-2,2h-9.4c-1.4,0-2-1.1-2-2V2.6C18,1.4,18.8,0.6,20.1,0.6z"/>
	<path class="st0" d="M2.8,18H12c1.4,0,2,1.1,2,2v9.4c0,1.4-1.1,2-2,2H2.6c-1.3,0-2-1.1-2-2V20C0.5,18.9,1.4,18,2.8,18z"/>
	<path class="st0" d="M19.7,17.7h10c1.1,0,1.7,0.8,1.7,1.7v0.8c0,1.1-0.8,1.7-1.6,1.7h-7.7l-0.2,7.7c0,1.1-0.8,1.7-1.6,1.7h-0.8
		c-1.1,0-1.7-0.8-1.7-1.7v-10c0-0.6,0.6-1.2,0.6-1.2S19.1,17.7,19.7,17.7L19.7,17.7z"/>
</g>
</svg>
