<?xml version="1.0" encoding="utf-8"?>
<!-- Generator: Adobe Illustrator 24.0.3, SVG Export Plug-In . SVG Version: 6.00 Build 0)  -->
<svg version="1.1" id="Layer_1" xmlns="http://www.w3.org/2000/svg" xmlns:xlink="http://www.w3.org/1999/xlink" x="0px" y="0px"
	 viewBox="0 0 32 32" style="enable-background:new 0 0 32 32;" xml:space="preserve">
<style type="text/css">
	.st0{fill:#FFFFFF;}
</style>
<g>
	<path class="st0" d="M2.3,0h9.5c1.4,0,2.1,1.1,2.1,2.1v9.7c0,1.2-1.1,2.1-2.1,2.1H2.1c-1.4,0-2.1-1.1-2.1-2.1V2.1
		C-0.1,0.9,0.9,0,2.3,0z"/>
	<path class="st0" d="M20.2,0h9.7C31.1,0,32,1.1,32,2.1v9.7c0,1.2-1.1,2.1-2.1,2.1h-9.7c-1.4,0-2.1-1.1-2.1-2.1V2.1
		C18.1,0.9,18.9,0,20.2,0z"/>
	<path class="st0" d="M2.3,18.1h9.5c1.4,0,2.1,1.1,2.1,2.1v9.7c0,1.4-1.1,2.1-2.1,2.1H2.1C0.8,32,0,30.9,0,29.9v-9.7
		C-0.1,19,0.9,18.1,2.3,18.1z"/>
	<path class="st0" d="M19.8,17.8h10.4c1.1,0,1.8,0.8,1.8,1.8v0.8c0,1.1-0.8,1.8-1.7,1.8h-8l-0.2,8c0,1.1-0.8,1.8-1.7,1.8h-0.8
		c-1.1,0-1.8-0.8-1.8-1.8V19.8c0-0.6,0.6-1.2,0.6-1.2S19.2,17.8,19.8,17.8L19.8,17.8z"/>
</g>
</svg>
