<?xml version="1.0" encoding="utf-8"?>
<!-- Generator: Adobe Illustrator 24.0.3, SVG Export Plug-In . SVG Version: 6.00 Build 0)  -->
<svg version="1.1" id="Layer_1" xmlns="http://www.w3.org/2000/svg" xmlns:xlink="http://www.w3.org/1999/xlink" x="0px" y="0px"
	 viewBox="0 0 32 32" style="enable-background:new 0 0 32 32;" xml:space="preserve">
<style type="text/css">
	.st0{fill:#CED4D9;}
	.st1{enable-background:new    ;}
</style>
<path class="st0" d="M31.9,30.4c0.2-0.2,0.2-0.5,0.1-0.7c-0.9-2.6-2-5.5-2.1-6.2c1.4-2.3,2.1-4.9,2.1-7.5c0-8.5-7.2-15.3-16-15.3
	C7.1,0.7,0,7.5,0,16s7.1,15.3,16,15.3c3.1,0,6.1-0.8,8.7-2.4l6.6,1.7C31.5,30.7,31.8,30.6,31.9,30.4z M24.9,27.7
	c-0.2-0.1-0.5-0.1-0.7,0C21.7,29.3,18.9,30,16,30C7.9,30.1,1.3,23.8,1.3,16S7.9,2,16,2s14.7,6.3,14.7,14c0,2.5-0.7,4.9-2.1,7.1
	c-0.2,0.3-0.3,0.5,1.7,5.9L24.9,27.7z"/>
<g class="st1">
	<path class="st0" d="M6.3,15c1.3,0,1.5-0.7,1.5-1.3c0-0.5-0.1-1-0.1-1.4c-0.1-0.5-0.1-0.9-0.1-1.4c0-1.6,1-2.2,2.6-2.2h0.4v0.9
		h-0.3C9,9.6,8.7,10.1,8.7,11c0,0.4,0.1,0.8,0.1,1.2c0.1,0.4,0.1,0.8,0.1,1.3c0,1.1-0.5,1.6-1.3,1.8l0,0c0.8,0.2,1.3,0.8,1.3,1.9
		c0,0.5-0.1,0.9-0.1,1.3c-0.1,0.5-0.1,0.9-0.1,1.3c0,1,0.4,1.5,1.4,1.5h0.3v0.9H9.9c-1.5,0-2.6-0.6-2.6-2.3c0-0.5,0.1-0.9,0.1-1.4
		c0.2-0.5,0.3-0.9,0.3-1.4s-0.2-1.3-1.5-1.3C6.3,15.8,6.3,15,6.3,15z"/>
</g>
<path class="st0" d="M12.9,14.8c-0.5,0-0.9,0.4-0.9,0.9c0,0.5,0.4,0.9,0.9,0.9c0.5,0,0.9-0.4,0.9-0.9C13.8,15.2,13.4,14.8,12.9,14.8
	z"/>
<path class="st0" d="M16.2,14.8c-0.5,0-0.9,0.4-0.9,0.9c0,0.5,0.4,0.9,0.9,0.9c0.5,0,0.9-0.4,0.9-0.9C17.1,15.2,16.7,14.8,16.2,14.8
	z"/>
<path class="st0" d="M19.5,14.8c-0.5,0-0.9,0.4-0.9,0.9c0,0.5,0.4,0.9,0.9,0.9c0.5,0,0.9-0.4,0.9-0.9C20.5,15.2,20.1,14.8,19.5,14.8
	z"/>
<g class="st1">
	<path class="st0" d="M26.4,15.8c-1.3,0-1.5,0.7-1.5,1.3c0,0.5,0.1,0.9,0.1,1.4s0.1,0.9,0.1,1.4c0,1.7-1.1,2.3-2.6,2.3h-0.4v-0.9
		h0.3c1,0,1.5-0.5,1.5-1.5c0-0.4-0.1-0.8-0.1-1.2c-0.1-0.4-0.1-0.8-0.1-1.3c0-1.1,0.5-1.7,1.3-1.9l0,0c-0.7-0.2-1.3-0.7-1.3-1.8
		c0-0.5,0.1-0.9,0.1-1.3c0.1-0.4,0.1-0.8,0.1-1.2c0-0.9-0.4-1.4-1.4-1.5h-0.3v-1h0.3c1.5,0,2.6,0.7,2.6,2.2c0,0.5-0.1,0.9-0.1,1.4
		c-0.1,0.5-0.1,1-0.1,1.4c0,0.6,0.2,1.3,1.5,1.3C26.4,14.9,26.4,15.8,26.4,15.8z"/>
</g>
</svg>
