<?xml version="1.0" encoding="utf-8"?>
<!-- Generator: Adobe Illustrator 24.0.3, SVG Export Plug-In . SVG Version: 6.00 Build 0)  -->
<svg version="1.1" id="Layer_1" xmlns="http://www.w3.org/2000/svg" xmlns:xlink="http://www.w3.org/1999/xlink" x="0px" y="0px"
	 viewBox="0 0 32 32" style="enable-background:new 0 0 32 32;" xml:space="preserve">
<style type="text/css">
	.st0{display:none;}
	.st1{display:inline;}
	.st2{fill:#CED4D9;}
</style>
<g id="Layer_1_1_" class="st0">
	<g class="st1">
		<path class="st2" d="M25.5,1C27,1,28,2.2,28,3.2v13c-1.1-0.5-2.3-0.7-3.6-0.7c-5.6,0-9.8,4.2-9.8,9.8c0,2.1,0.6,4.1,1.7,5.7H6.6
			c-1.4,0-2.5-1.1-2.5-2.5v-25C4.1,2.3,5,1,6.6,1H25.5 M7.2,7.9h15.9c0.9,0,2-0.9,2-2.1S24,3.7,23,3.7H7.2C6,3.7,5.1,4.8,5.1,5.8
			C5.1,7,6.2,7.9,7.2,7.9 M7.2,13h15.9c0.9,0,2-0.9,2-2.1S24,8.8,23,8.8H7.2c-1.2,0-2.1,0.9-2.1,2.1S6.2,13,7.2,13 M6.9,18H16
			c0.7,0,1.4-0.5,1.6-2v-0.1v-0.1c0-1.2-0.7-2.1-1.6-2.1H6.9c-0.9,0-1.6,0.9-1.6,2.1C5.3,17.1,6,18,6.9,18 M25.5,0H6.6
			C4.5,0,3.1,1.6,3.1,3.5v25c0,1.9,1.6,3.5,3.5,3.5h12c-1.9-1.6-3-4-3-6.7c0-5,3.8-8.8,8.8-8.8c1.8,0,3.4,0.5,4.6,1.4V3.2
			C29,1.6,27.5,0,25.5,0L25.5,0z M7.2,6.9c-0.5,0-1.1-0.5-1.1-1.1c0-0.5,0.5-1.1,1.1-1.1H23c0.5,0,1.1,0.5,1.1,1.1s-0.6,1.1-1,1.1
			H7.2L7.2,6.9z M7.2,12c-0.5,0-1.1-0.5-1.1-1.1s0.5-1.1,1.1-1.1H23c0.5,0,1.1,0.5,1.1,1.1s-0.6,1.1-1,1.1H7.2L7.2,12z M6.9,17
			c-0.3,0-0.6-0.5-0.6-1.1c0-0.5,0.2-1.1,0.6-1.1H16c0.3,0,0.6,0.5,0.6,1.1C16.5,16.7,16.2,17,16,17H6.9L6.9,17z"/>
	</g>
	<g class="st1">
		<path class="st2" d="M24,20.3c2.9,0,5.2,2.3,5.2,5.2s-2.3,5.2-5.2,5.2s-5.2-2.3-5.2-5.2S21.1,20.3,24,20.3 M22.2,25.6
			c0.1,0,0.2,0,0.3,0c-0.2,0.3-0.3,0.6-0.3,1c0,0.3,0.1,0.7,0.3,1c-0.3,0.3-0.5,0.8-0.5,1.2c0,1,0.8,1.8,1.8,1.8s1.8-0.8,1.8-1.8
			c0-0.5-0.2-0.9-0.4-1.2c0.1-0.2,0.2-0.4,0.3-0.5l0,0c0.1-0.1,0.2-0.1,0.3-0.2c0.6-0.4,1.7-1.3,1.6-2.8c0-1.8-1.4-3-3.5-3
			c-1.8,0-3.3,1.4-3.3,2.9C20.5,24.9,21.2,25.6,22.2,25.6 M24,19.3c-3.4,0-6.2,2.8-6.2,6.2s2.8,6.2,6.2,6.2s6.2-2.8,6.2-6.2
			S27.4,19.3,24,19.3L24,19.3z M22.2,24.6c-0.4,0-0.7-0.2-0.7-0.6c0-1,1.1-1.9,2.3-1.9c1.3,0,2.5,0.6,2.5,2c0.1,1.4-1.3,1.9-1.7,2.4
			c-0.2,0.4-0.2,0.8-0.8,0.8c-0.4,0-0.6-0.4-0.6-0.7c0-1.2,1.8-1.5,1.8-2.4c0-0.5-0.4-0.9-1-0.9C22.7,23.3,23.2,24.6,22.2,24.6
			L22.2,24.6z M23.8,29.6c-0.5,0-0.8-0.4-0.8-0.8c0-0.5,0.4-0.8,0.8-0.8c0.5,0,0.8,0.4,0.8,0.8C24.6,29.2,24.3,29.6,23.8,29.6
			L23.8,29.6z"/>
	</g>
</g>
<g>
	<path class="st2" d="M16.9,25.3c0-5,3.8-8.8,8.8-8.8c1.8,0,3.4,0.5,4.6,1.4V3.2c0-1.6-1.5-3.2-3.5-3.2H3.9C1.8,0,0.4,1.6,0.4,3.5
		v25C0.4,30.4,2,32,3.9,32h16C18,30.4,16.9,28,16.9,25.3z M3.9,31c-1.3,0-2.5-1.1-2.5-2.5v-25C1.4,2.3,2.3,1,3.9,1h22.9
		c1.5,0,2.5,1.2,2.5,2.2v13c-1.1-0.5-2.3-0.7-3.6-0.7c-5.6,0-9.8,4.2-9.8,9.8c0,2.1,0.6,4.1,1.7,5.7H3.9z"/>
	<path class="st2" d="M4.5,7.9h19.9c0.9,0,2-0.9,2-2.1c0-1.2-1.1-2.1-2.1-2.1H4.5c-1.2,0-2.1,1.1-2.1,2.1C2.4,7,3.5,7.9,4.5,7.9z
		 M4.5,4.7h19.8c0.5,0,1.1,0.5,1.1,1.1c0,0.6-0.6,1.1-1,1.1H4.5C4,6.9,3.4,6.4,3.4,5.8C3.4,5.3,3.9,4.7,4.5,4.7z"/>
	<path class="st2" d="M18.9,16v-0.1c0-1.2-0.7-2.1-1.6-2.1H4.2c-0.9,0-1.6,0.9-1.6,2.1c0,1.2,0.7,2.1,1.6,2.1h13.1
		C18,18,18.7,17.5,18.9,16z M3.6,15.9c0-0.5,0.2-1.1,0.6-1.1h13.1c0.3,0,0.6,0.5,0.6,1.1c-0.1,0.8-0.4,1.1-0.6,1.1H4.2
		C3.9,17,3.6,16.5,3.6,15.9z"/>
	<path class="st2" d="M4.5,13h19.9c0.9,0,2-0.9,2-2.1c0-1.2-1.1-2.1-2.1-2.1H4.5c-1.2,0-2.1,0.9-2.1,2.1C2.4,12.1,3.5,13,4.5,13z
		 M4.5,9.8h19.8c0.5,0,1.1,0.5,1.1,1.1c0,0.6-0.6,1.1-1,1.1H4.5c-0.5,0-1.1-0.5-1.1-1.1C3.4,10.3,3.9,9.8,4.5,9.8z"/>
	<path class="st2" d="M25.4,19.3c-3.4,0-6.2,2.8-6.2,6.2s2.8,6.2,6.2,6.2c3.4,0,6.2-2.8,6.2-6.2S28.8,19.3,25.4,19.3z M25.4,30.7
		c-2.9,0-5.2-2.3-5.2-5.2s2.3-5.2,5.2-5.2c2.9,0,5.2,2.3,5.2,5.2S28.2,30.7,25.4,30.7z"/>
	<path class="st2" d="M25.2,21.1c-1.8,0-3.3,1.4-3.3,2.9c0,0.9,0.7,1.6,1.7,1.6c0.1,0,0.2,0,0.2,0c-0.2,0.3-0.2,0.6-0.2,1
		c0,0.3,0.1,0.7,0.3,1c-0.3,0.3-0.5,0.8-0.5,1.2c0,1,0.8,1.8,1.8,1.8c1,0,1.8-0.8,1.8-1.8c0-0.5-0.2-0.9-0.4-1.2
		c0.1-0.2,0.2-0.4,0.3-0.5c0,0,0,0,0,0c0.1,0,0.2-0.1,0.2-0.2c0.6-0.5,1.7-1.3,1.6-2.8C28.7,22.3,27.2,21.1,25.2,21.1z M24.4,28.8
		c0-0.5,0.4-0.8,0.8-0.8c0.5,0,0.8,0.4,0.8,0.8c0,0.4-0.3,0.8-0.8,0.8S24.4,29.2,24.4,28.8z M26,26.5c-0.2,0.4-0.2,0.8-0.8,0.8
		c-0.4,0-0.6-0.4-0.6-0.7c0-1.2,1.8-1.5,1.8-2.4c0-0.5-0.4-0.9-1-0.9c-1.3,0-0.8,1.3-1.8,1.3c-0.4,0-0.7-0.2-0.7-0.6
		c0-1,1.1-1.9,2.3-1.9c1.3,0,2.5,0.6,2.5,2C27.8,25.5,26.4,26,26,26.5z"/>
</g>
</svg>
