<?xml version="1.0" encoding="utf-8"?>
<!-- Generator: Adobe Illustrator 24.0.3, SVG Export Plug-In . SVG Version: 6.00 Build 0)  -->
<svg version="1.1" id="Layer_1" focusable="false" xmlns="http://www.w3.org/2000/svg" xmlns:xlink="http://www.w3.org/1999/xlink"
	 x="0px" y="0px" viewBox="0 0 84.4 85" style="enable-background:new 0 0 84.4 85;" xml:space="preserve">
<style type="text/css">
	.st0{fill:none;}
	.st1{fill-rule:evenodd;clip-rule:evenodd;fill:#D9D9D9;}
	.st2{fill-rule:evenodd;clip-rule:evenodd;fill:#ECECEC;}
	.st3{fill-rule:evenodd;clip-rule:evenodd;fill:#9C9B9B;}
	.st4{fill-rule:evenodd;clip-rule:evenodd;fill:#003E75;}
</style>
<g>
	<path class="st0" d="M74.8,12L42.9,0.7L0.5,21.3l13.1,44.2l29.1,18.7l41.1-26.1L74.8,12z"/>
	<path class="st1" d="M42.9,0.7L0.5,21.3l29.8,14.8L74.8,12L42.9,0.7z"/>
	<path class="st2" d="M83.8,58.1L42.7,84.2L30.3,36.1L74.8,12L83.8,58.1z"/>
	<path class="st3" d="M13.6,65.5L0.5,21.3l29.8,14.8l12.5,48.1L13.6,65.5z"/>
	<g>
		<path class="st4" d="M16.5,26.6c-0.1,0-0.5,0.8-0.4,0.9c0,0.1,0.7,0.6,0.7,0.5c0.1-0.1,0.5-0.8,0.4-0.9
			C17.2,27,16.6,26.5,16.5,26.6 M28.9,69.6c-0.1,0-0.3,0.2-0.3,0.3c0,0.1,0.2,0.3,0.3,0.3c0.1,0,0.3-0.2,0.3-0.3
			C29.2,69.8,29,69.6,28.9,69.6 M14.9,20.9c0.3,0.3,1.3,0.2,1.6-0.3c0.1-0.2,0.3-0.5,0.4-0.8c0.2-0.3,0-0.8,0-1.1
			c-0.1-0.4,0.2-0.7,0.4-1c0.2-0.3,0.5-0.2,0.8-0.4c0.3-0.1,0.5-0.6,0.6-0.8c0.2-0.3-0.1-0.2-0.2-0.2l-2,0.4
			c-0.4,0.1-0.9,0.1-1.2,0.5l-1,1.9C13.8,19.9,14.4,20.5,14.9,20.9 M12.1,21.7l0.7-1.2c0.1-0.1,0.8-1,0.7-1.2
			c-0.1-0.2-1,0.2-1.2,0.2c-0.4,0.1-0.8,0.1-1,0.5c-0.2,0.3-0.8,1.1-0.4,1.4C11.1,21.6,11.7,22.3,12.1,21.7 M6.9,24.6
			c0.2,0.2,0.4,0.2,0.7,0.1c0.3-0.1,0.7-0.2,1-0.2c0.2-0.1,0.6-0.2,0.8,0c0.5,0.4,0.8,0.8,1.4,0.7l1-0.2c0.3-0.1,0.4-0.4,0.6-0.7
			c0.2-0.4-0.9-1.1-1.2-1c-0.4,0.1-1.4,0.6-1.8,0.2c-0.2-0.2-0.4-0.4-0.6-0.6c-0.2-0.2-0.6,0-0.8,0l-0.9,0.2
			c-0.3,0.1-0.5,0.5-0.6,0.8C6.3,24.2,6.7,24.4,6.9,24.6 M13.4,21.6c0,0.1,0.4,0.4,0.5,0.3c0.1,0,0.4-0.5,0.2-0.6
			c-0.1-0.1-0.4-0.5-0.5-0.3C13.6,21,13.3,21.5,13.4,21.6 M12.9,22.1c-0.1,0-0.5,0.8-0.4,0.9c0.1,0.1,0.6,0.7,0.7,0.5
			c0.1,0,0.5-0.8,0.4-0.9C13.5,22.5,12.9,21.9,12.9,22.1 M17.7,23.9c0.3,0.2,0.4,0.5,0.5,0.9c0.1,0.4,0,0.8,0.3,1
			c0.2,0.2,0.5,0.4,0.8,0.7c0.5,0.4,1.1,1,1.7,0.4c0.5-0.5,0.1-1.3-0.3-1.6c-0.2-0.2-0.3-0.5-0.3-0.8c0-0.2,0.4-0.7,0.2-0.9
			c-0.5-0.4-1-0.9-1.5-1.3c-0.3-0.3-1-1.1-1.4-1l-1.9,0.4c-0.3,0.1-1.2,1.3-0.8,1.6l0.8,0.7c0.3,0.2,0.7,0,1,0
			C17,23.9,17.4,23.7,17.7,23.9 M19.2,19.2c0.3,0.1,0.7-0.1,1-0.1c0.7-0.2,1.1-0.3,1.8,0.2c0.5,0.4,1.1,0.8,1.4,1.2
			c0.2,0.2,0.2,0.7,0.3,1c0.1,0.5,0.1,0.9,0.2,1.3c0.1,0.4,0.4,0.5,0.6,0.7c0.3,0.2,0.3,0.9,0.3,1.3c0.1,0.7,1,1.2,1.4,1.5
			c0.3,0.3,0.8,0.3,1.1,0c0.4-0.4,0.3-1,0.2-1.6c-0.1-0.5,0.1-0.8,0.4-1.1l0.8-1.4c0.2-0.4,0.6-0.4,1-0.5c0.5-0.1,0.7-0.2,0.9-0.7
			c0.3-0.5,0.4-0.7,0.3-1.3c-0.1-0.4-0.3-1.2-0.1-1.6c0.2-0.3,0.3-0.6,0.2-1c0-0.3-0.2-0.3-0.3-0.5c-0.2-0.2-0.2-0.5-0.2-0.7
			c-0.1-0.8,0.8-1.3,0.9-2c0-0.4-0.1-0.6-0.4-0.6l-1.2,0.3c-0.2,0.1-0.5,0.2-0.7,0.2c-0.3,0.1-0.7-0.4-1-0.6c-0.4-0.3-1.2,0-1.7,0.1
			c-0.4,0.1-1.5,0.3-1.7,0.6c-0.3,0.6-0.5,1.2-1.2,1.3l-2.1,0.5c-0.5,0.1-0.9,1.2-1.1,1.7c-0.2,0.3-0.4,0.4-0.7,0.4
			c-0.4,0.1-0.5,0.3-0.8,0.7C18.5,18.7,19,19.1,19.2,19.2 M35.5,26.2c0.1,0.2,0,0.4,0.2,0.6c0.3,0.2,0.5,0.5,0.4,1
			c0,0.2-0.6,0.9-0.3,1.1c0.1,0.1,0.2-0.5,0.4-0.5c0.2-0.1,0.5,0,0.7-0.2c0.4-0.3,0.4-0.9,0-1.2l-0.7-0.5c-0.3-0.3,0.1-0.4,0-0.7
			c0-0.3-0.4-0.1-0.5-0.3c-0.2-0.1-0.1-0.7-0.3-0.6c-0.1,0-0.2,0.3-0.2,0.4c-0.1,0.1,0,0.5,0,0.6C35.2,26,35.4,26,35.5,26.2
			 M39.8,32.6c0.1,0,0.3-0.4,0.2-0.5c-0.1-0.1-0.3-0.4-0.4-0.2c-0.1,0-0.3,0.4-0.2,0.5C39.4,32.5,39.7,32.8,39.8,32.6 M69,27.9
			c0.1-0.3,0.6-0.3,0.8-0.4c0.4-0.1,0.6-0.5,0.6-0.8c0.1-0.3,0.1-0.6,0-0.9c0-0.2-0.1-0.7-0.3-1c0-0.1-0.3-0.4-0.5-0.4
			c-0.2,0.1,0.2,1.1,0.2,1.6c0,0.4-0.4,0.6-0.6,0.6c-0.2,0.1-0.5,0.2-0.6,0.5c-0.1,0.2-0.9,1.5-0.8,1.7c0.1,0.2,0.4,0,0.5,0
			c0.2-0.1,0.3-0.4,0.4-0.5C68.9,28.2,68.9,28.2,69,27.9 M70.5,24.4c0.1,0,0.4-0.5,0.3-0.7c-0.1-0.1-0.3-0.4-0.6-0.3
			c-0.1,0-0.4,0.5-0.3,0.7C70,24.1,70.3,24.4,70.5,24.4 M63.7,41.2c0-0.2,0-0.6-0.2-0.7l-1.1-1c-0.1-0.1-0.9-0.9-1-0.9
			c-0.2,0.1,0,0.9,0.3,1.2c0.4,0.4,0.8,0.7,1.2,1c0.4,0.3,0.2,0.7,0.4,1.1c0,0.2,0.9,1,1,0.9c0.1-0.1-0.1-1.1-0.3-1.2
			C63.8,41.5,63.7,41.4,63.7,41.2 M57.7,39.4c-0.1,0-0.2,0.3-0.2,0.5c0,0.1,0.2,0.3,0.3,0.2c0.2-0.1,0.2-0.3,0.1-0.4
			C57.9,39.6,57.8,39.3,57.7,39.4 M66.9,32.7c0-0.1-0.2-0.1-0.3,0.1c-0.1,0.2-0.2,0.4-0.2,0.6c0,0.1,0.2,0.3,0.3,0.3
			C67,33.6,67,32.9,66.9,32.7 M52.2,49.1c-0.1,0-0.7,1.2-0.8,1.4c0,0.3,0.1,0.5,0.1,0.8c0,0.3-0.3,0.5-0.4,0.7c-0.1,0.2,0,0.5,0.1,1
			c0,0.3,0.3,0.5,0.5,0.6c0.4,0.3,1-0.4,1-0.9c0-0.5-0.2-1.3-0.3-1.8C52.5,50.7,52.4,49.2,52.2,49.1 M68,42.7
			c0.2-0.1,0.5-0.7,0.5-0.9c0-0.2-0.6-0.7-0.8-0.6c-0.2,0.1-0.5,0.7-0.5,0.9C67.2,42.4,67.8,42.8,68,42.7 M70.2,41.3
			c0.2,0,0.5-0.1,0.8-0.2c0.4-0.1,0.5,0.6,0.6,0.9c0.1,0.5,0.1,1,0.5,1.2c0.4,0.2,0.8-0.2,0.9-0.5c0.1-0.2,0.3-0.4,0.5-0.2
			c0.1,0,0.4,0.4,0.4,0.3c0.1-0.1-0.1-0.7-0.1-0.8c0-0.2-0.3-0.4-0.5-0.5C73.2,41.3,73,41,72.8,41c-0.2-0.1-0.5,0.2-0.7,0
			c-0.3-0.3-0.7-0.8-1.1-0.7c-0.2,0-1.5,0.2-1.5,0.4C69.4,40.8,70,41.3,70.2,41.3 M75.4,54.5c-0.1,0-0.4,0.6-0.3,0.7
			c0.1,0.1,0.4,0.4,0.6,0.3c0.1,0,0.4-0.5,0.3-0.7C75.9,54.8,75.5,54.5,75.4,54.5 M81.2,52.2c0-0.1-0.4-0.4-0.6-0.3
			c-0.1,0-0.4,0.6-0.3,0.7c0.1,0.1,0.4,0.4,0.6,0.3C81.1,52.9,81.3,52.4,81.2,52.2 M79.9,53.4c-0.1,0.1-0.2,0.3-0.3,0.5
			c-0.1,0.1-0.9,1.4-0.8,1.6c0.1,0.1,0.5,0.5,0.6,0.3c0.1-0.2,0.3-0.5,0.3-0.6c0.3-0.5,0.9-1.3,0.8-1.6C80.4,53.6,80,53.3,79.9,53.4
			 M22.4,45.3c-0.1,0-0.3,0.2-0.2,0.3c0,0.1,0.3,0.3,0.4,0.2c0.1,0,0.3-0.2,0.2-0.3C22.8,45.5,22.5,45.3,22.4,45.3 M20.5,43.8
			c-0.1-0.1-0.5,0.2-0.3,0.3c0.4,0.3,0.6,0.5,0.7,0.5c0.5,0.4,0.7,0.6,0.8,0.6c0.1,0,0.4-0.3,0.2-0.4c-0.1-0.1-0.2-0.1-0.3-0.2
			C21,44.2,20.8,44,20.5,43.8 M67.8,37.6c0.1,0.1,0.5-0.6,0.5-0.7c0-0.2-0.4-0.7-0.5-0.6c-0.2,0-0.5,0.6-0.5,0.7
			C67.2,37.3,67.7,37.6,67.8,37.6 M67,36.1c0.1,0.1,0.3-0.4,0.3-0.5c0-0.2-0.3-0.4-0.4-0.4c-0.1,0-0.3,0.4-0.3,0.5
			C66.7,35.9,67,36.1,67,36.1 M67.2,44.3c-0.4-0.4-0.8-0.7-1.2-1c-0.1-0.1-0.3-0.3-0.4-0.3c-0.1,0.1-0.4,0.6-0.2,0.7
			c0.1,0.1,0.3,0.3,0.4,0.3l0.8,0.7c0.1,0.1,0.3,0.3,0.4,0.2C67,44.9,67.3,44.4,67.2,44.3 M65.4,41.7c0.4-0.1,0.7-0.1,0.9-0.4
			c0.2-0.3,0.6-0.8,0.6-1.2c-0.1-0.5-0.2-1.1-0.2-1.6c0-0.3-0.4-1.2-0.6-0.9c0,0.1,0,0.1,0,0.2c0,0.4,0.1,0.7-0.1,1.1
			c-0.2,0.3-0.4,1.1-0.7,1.1c-0.1,0-0.5,0-0.6,0.1c-0.1,0.1-0.1,0.3-0.1,0.5C64.6,41.1,64.8,41.8,65.4,41.7"/>
		<path class="st4" d="M34.7,28.6c0.3-0.1,0.7-0.4,0.6-0.8c0-0.3,0-0.8-0.3-0.8c-0.4,0.1-0.6,0.4-0.7,0.8
			C34.4,28,34.4,28.6,34.7,28.6 M39.5,25.5c0,0,0.1-0.1,0-0.1c-0.1,0-0.2,0-0.2,0.1c0,0-0.1,0.1,0,0.2
			C39.3,25.6,39.5,25.6,39.5,25.5 M75.9,48.5c-0.1-0.4-0.5-0.7-0.8-0.9c-0.3-0.3-0.9-0.6-1.1-1c-0.1-0.2-0.1-0.6-0.1-0.8
			c0-0.2-0.3-0.4-0.4-0.5c-0.2-0.2-0.1-0.5-0.2-0.8c0-0.1-0.4-0.6-0.5-0.5c-0.1,0.1,0.1,1,0.1,1.1c0,0.3,0.2,0.7-0.1,1
			c-0.3,0.5-1.4-0.5-1.4-0.9c0-0.3-0.3-0.8-0.6-0.7c-0.3,0-0.5,0.5-0.7,0.7c-0.2,0.4-0.2,0.5-0.6,0.2c-0.3-0.3-0.4,0.2-0.6,0.5
			c-0.2,0.3-0.1,0.6,0,1c0.1,0.4-0.2,0.7-0.3,1c-0.3,0.6-1.1,0.1-1.4,0.7c-0.2,0.3-0.4,0.5-0.3,0.9c0.1,0.4,0,0.9,0.2,1.2
			c0,0.3,0.5,0.3,0.5,0.7l0.2,1.4c0.1,0.4,0.1,0.5,0.4,0.7c0.4,0.3,0.3-0.2,0.6-0.4c0.2-0.3,0.6,0,0.8-0.3c0.2-0.2,0.2-0.7,0.5-0.7
			c0.3-0.1,0.6-0.2,0.9-0.2c0.3-0.1,0.5,0.4,0.7,0.5c0.3,0.2,0.6-0.1,0.7-0.3c0.2-0.4,0.3-0.8,0.7-0.5c0.5,0.4,0.1,1.6,0.5,2
			c0.2,0.2,0.5,0.6,0.7,0.5l1-0.2c0.2,0,0.4-0.5,0.5-0.7c0.1-0.3-0.1-1-0.1-1.2c-0.1-0.7,0.6-1,0.5-1.7L75.9,48.5 M31.7,50.3
			c-0.1-0.2-0.3-0.3-0.5-0.4c-0.7-0.6-1.3-1.2-2-1.7c-0.5-0.4-0.7-0.5-1.3-0.4c-0.7,0.1-1.3,0.3-2,0.4c-0.6,0.1-1-1-1.6-0.9
			c-0.7,0.2-1.4,0.3-2.1,0.5c-0.1,0-0.2,0-0.2,0.1c-0.1,0.1-0.4,0.7-0.5,0.7c-0.2,0-0.4-0.2-0.5-0.4c-0.7-0.6-1.3-1.1-1.9-1.6
			c-0.2-0.1-0.3-0.2-0.4-0.4c-0.2-0.2-0.1-1.3-0.4-1.2c-0.5,0.1-1.5,0.6-1.7-0.4c-0.1-0.7-0.5-1.8,0.1-2.3c0.2-0.2,0.6-0.2,0.8-0.3
			c0.4-0.1,0.7-0.2,1.1-0.2c0.4-0.1,1.3,1.3,1.5,0.3c0.1-0.4-0.5-0.7-0.7-0.9C19,40.8,19,40.5,18.9,40c-0.1-0.7,0.6-1.3,0.9-1.9
			c0.2-0.4-0.1-0.9,0-1.3c0.1-0.3,0.3-0.6,0.4-0.8c0.2-0.4,0.4-0.8,0.7-1.2c0.1-0.3,0.4-0.5,0.3-0.9c-0.1-0.4-0.1-0.7,0.1-1.1
			c0.2-0.4,0.3-0.6,0.7-0.7c0.7-0.1,1.3-0.2,1.5-1.2c0.1-0.3,0-0.8-0.1-1.1c-0.1-0.3-0.4-0.6-0.6-0.7c-0.3-0.3-0.6-0.5-1-0.8
			c-0.2-0.2-0.4-0.5-0.7-0.4l-1.8,0.4c-0.3,0.1-0.5,0.6-0.6,0.8c-0.2,0.4-0.1,0.6-0.1,1l0.2,1.2c0,0.2-0.3,1.1-0.6,0.9
			c-0.1,0-0.3-0.2-0.4-0.3c-0.3-0.3-0.7-0.5-1-0.8l-1.7-1.4c-0.4-0.3-0.5-1.3-0.2-1.8c0.3-0.6,1-1.4,0.9-2.1
			c-0.1-0.4-0.1-0.8-0.3-1.1c-0.3-0.3-0.6-0.5-0.9-0.8c-0.4-0.3-0.2,0.3-0.2,0.6c0.1,0.4-0.1,1-0.5,1.1c-0.5,0.2-1.2,0.3-1.7,0.4
			c-0.4,0.1-0.7,0.2-1.1,0.2c-0.2,0-0.5,0.2-0.7,0.1c-0.5-0.2-0.9-1.1-1.5-1c-0.7,0.2-1.4,0.3-2.1,0.5c-0.2,0-0.4,0-0.6,0.1
			c-0.4,0.1-0.4,0.8-0.8,1c-0.7,0.5-1.2-0.1-1.8-0.6c-0.5-0.4-0.9-0.2-1.5-0.1c-0.1,0-0.1,0-0.2,0l1.4,4.7c0.3-0.1,0.5-0.1,0.8-0.2
			c0.5-0.1,0.8,0.3,1.2,0.6c0.7,0.6,1.4,1.2,2,1.8c0.3,0.2,0.9,0.6,0.9,1.1c0.2,1.7,0.5,3.4,0.8,5.1c0.1,0.5,0.1,1.1,0.2,1.6
			c0.1,0.5,1,1,1.3,1.3c0.6,0.5,1.3,1.1,1.9,1.6c0.1,0.1,0.4,0.4,0.5,0.1c0.2-0.4,0.2-0.5-0.1-0.8c-0.6-0.5-1.2-1-1.7-1.5
			c-0.2-0.2,0-0.8,0.2-0.8c0.2,0,0.4,0.3,0.5,0.4l2,1.7c0.4,0.4,0.9,0.6,0.9,1.2c0.1,0.8,0.1,1.6,0.7,2.1l0.8,0.7
			c0.3,0.2,0.6,0.1,0.9,0c0.2,0,0.8-0.2,1-0.1c0.2,0.1,0.3,0.3,0.5,0.4c0.7,0.6,1.1,1,1.8,1.6c0.2,0.2,0.4,0.3,0.6,0.5
			c0.3,0.2-0.1,0.8-0.2,1c-0.2,0.3-0.5,0.7-0.4,1.1c0,0.3,0.1,0.6,0.1,0.8c0.1,0.9,0.3,1.8,0.4,2.6c0.1,0.6,0.9,1.1,1.3,1.4
			c0.3,0.3,1.1,0.7,1.2,1.3l0.3,2c0.2,1.6,0.5,3.3,0.7,4.9c0.1,0.4-0.2,0.6-0.3,0.9C24,65.8,24,66,24.1,66.4
			c0.1,0.9,0.3,1.8,0.4,2.7c0.1,0.7,0.8,1.1,1.2,1.4c0.2,0.2,0.5,0.5,0.8,0.5c0.1,0,0.3-0.1,0.5-0.1c0.2-0.1,0.7,0,0.9-0.2
			c0.1-0.1-0.6-0.7-0.7-0.7c-0.2-0.2-0.5-0.4-0.6-0.8c-0.1-0.5-0.4-1.7-0.2-2.2c0.7-1.3,1.5-2.7,2.2-4.1c0.3-0.6-0.3-1.4,0.1-2
			c0.4-0.7,0.7-1.3,1.1-2c0.2-0.3,0.5-0.3,0.7-0.4c0.4-0.1,0.6-0.1,0.8-0.5c0.2-0.3,0.4-0.6,0.4-1c-0.1-0.4-0.1-0.7-0.2-1.1
			c-0.1-0.5-0.1-0.9-0.2-1.4c0-0.3-0.1-0.6,0-0.9c0.2-0.3,0.4-0.6,0.5-1c0.2-0.3,0-0.8,0-1.1C31.9,51.1,31.9,50.6,31.7,50.3
			 M32,22.3c-0.2,0-0.6,0-0.7,0.2c-0.1,0.1-0.2,0.4-0.4,0.6c-0.1,0.3-0.2,0.3,0,0.5c0.3,0.2,0.9,0.4,1.2,0c0.2-0.3,0.6-0.8,0.3-1.1
			C32.3,22.5,32.2,22.3,32,22.3 M45,32.8c0.1-0.1,0.1-0.1,0.1-0.2c0,0-0.1,0-0.1,0c-0.1,0-0.1,0.1-0.2,0.1c-0.1,0-0.1,0-0.1,0.1
			c0,0,0,0.1,0.1,0.1C44.9,33,45,32.9,45,32.8"/>
		<path class="st4" d="M62.5,36.7c0.3,0.4,0.2,0.9,0.1,1.3c-0.1,0.3,0,0.6,0.2,0.7c0.1,0.1,0.2,0.2,0.2,0.2l0.4,0.3
			c0,0,0.2,0.2,0.3,0.2c0.3,0,0.3-0.3,0.2-0.4c-0.2-0.2-0.5-0.4-0.7-0.6c-0.2-0.2-0.2-1,0-1.1c0.1,0,0.1,0,0.2,0
			c0.2,0.2,0.4,0.5,0.6,0.1c0.2-0.3,0-1.2-0.3-1.5c-0.2-0.2-0.7-0.4-0.5-0.8c0.2-0.3,0.4-0.8,0.7-0.9c0.5-0.1,1.1-0.1,1.5-0.7
			c0.4-0.8,0.8-1.5,1.2-2.2c0.2-0.4,0.2-1.6-0.2-2L64.7,28c-0.3-0.3,0.6-1.9,0.9-1.7c0.2,0.1,0.5,0.4,0.7,0.6
			c0.2,0.1,0.6,0.7,0.8,0.6c0.2,0,0.5-0.8,0.3-0.9c-0.3-0.2-0.6-0.4-0.3-0.8c0.2-0.3,0.3-0.7,0.5-0.9c0.2-0.4,0.7-0.2,0.9-0.6
			c0.3-0.5,0.9-1.3,0.8-1.9c-0.1-0.4-0.1-0.9-0.2-1.3c0-0.3-0.1-0.9-0.3-1.1c-0.2-0.3-0.6-0.4-0.6-0.8c-0.1-0.5,0-0.8,0.2-1.2
			c0.2-0.3,0.3-0.8,0.6-0.8c0.3-0.1,0.6-0.1,0.9-0.2c0.5-0.1,1.4-0.1,1.8-0.7c0.2-0.4,0.4-0.6,0.7-0.6c0.4-0.1,0.5-0.1,0.6,0.5
			c0.1,0.4,0.1,0.7-0.1,1c-0.2,0.3-0.6,0.8-0.5,1.2c0,0.7,0.2,1.5,0.3,2.2c0,0.3,0.5,0.8,0.7,0.5c0.2-0.4,0.4-0.8,0.6-1.1
			c0.1-0.3,0.4-0.6,0.4-1c0-0.3-0.1-0.6-0.1-0.9c-0.1-0.5-0.1-1-0.2-1.4c0-0.3-0.1-0.7,0-0.9c0.2-0.4,0.3-0.6,0.7-0.6
			c0.1,0,0.3,0,0.5-0.1L74.8,12l-3.3-1.2c-0.1,0-0.2,0-0.2,0l-1.8,0.4L67,11.8c-0.4,0.1-0.8,0.3-1.2,0.3c-0.6,0.1-1-1.1-1.6-0.9
			c-0.7,0.2-1.4,0.3-2.1,0.5c-0.4,0.1-1.1,0.4-1.5,0.1c-0.3-0.2-0.6-0.5-0.9-0.7c-0.2-0.2-0.5-0.6-0.8-0.5c-0.6,0-3.1,0.5-3.4,0.9
			c-0.7,1.3-1.4,2.5-2.1,3.8c-0.3,0.5-1.3,0.5-1.7,0.6c-0.3,0.1-0.5,0.1-0.8,0.2c-0.3,0.1-0.4,0.5-0.6,0.7c-0.2,0.3-0.3,0.7-0.5,0.9
			c-0.2,0.3-0.6,0.3-0.8,0.3l-1.2,0.3c-0.2,0.1-0.6,0.1-0.8,0.4c-0.5,0.6-0.5,1.2-1.2,1.4c-0.4,0.1-0.7,0.2-1.1,0.2
			c-0.3,0.1-0.6-0.2-0.9-0.5c-0.1-0.1-0.4-0.3-0.2-0.5c0.1-0.2,0.2-0.3,0.4-0.4c0.1,0,0.6,0,0.5-0.3c-0.1-0.2-0.3-0.3-0.4-0.4
			c-0.2-0.2-0.5-0.5-0.8-0.4c-0.3,0.1-0.8,0.3-1.1,0.1c-0.3-0.2-0.4-0.5-0.7-0.4c-0.4,0.1-0.7,0.2-1.1,0.2c-0.5,0.1-0.7,0.6-1,1.1
			c-0.5,0.8-0.9,1.6-1.4,2.5c-0.3,0.6-0.5,0.9-0.4,1.6l0.2,1.2c0,0.3,0.5,0.8,0.7,0.7c0.1,0,0.2-0.1,0.4-0.1c0.2,0,0.3,0.2,0.5,0.2
			c0.3,0,0.7-0.1,0.9-0.4c0.2-0.3,0.3-0.6,0.2-1c-0.1-0.4-0.5-0.8-0.5-1.2c-0.1-0.4,0.3-0.8,0.4-1.1c0.2-0.4,0.7-0.8,1.1-0.8
			c0.5,0.1,0.7,0.4,0.5,0.9C41.8,21.8,41,21.9,41,23c0,0.5,0.4,0.5,0.8,0.5c0.5,0,0.5,0.2,0.5,0.7c0,0.2-0.1,0.4-0.3,0.6
			c-0.2,0.3-0.6,0.1-0.9,0.4c-0.2,0.2,0,0.4-0.3,0.6c-0.2,0.1-0.3,0.1-0.5,0.2c-0.2,0-0.5,0.1-0.8,0.1c-0.1,0-0.3,0-0.3-0.1
			c0,0,0-0.1,0-0.1c0-0.1,0-0.1,0-0.2c0-0.3-0.3-0.6-0.4-0.5c-0.1,0.1-0.2,0.3-0.2,0.5c0.1,0.1,0.3,0.3,0.3,0.4c0,0.1,0,0.1-0.1,0.2
			c-0.3,0.1-0.5,0.2-0.6,0.4c-0.4,0.8-0.1,1.4-0.7,2.2c-0.1,0.2-0.2,0.4-0.3,0.6c-0.2,0.4,0,0.9,0,1.2c0.2,1.2-1.2,0.6-1.5,1.1
			c-0.2,0.2-0.2,0.5-0.2,0.9c0,0.2,0.1,1.1,0.2,1.2c0.2,0.2,0.4,0.4,0.7,0.3c0.3-0.1,0.7,0,0.9-0.4c0.1-0.1,0.2-0.3,0.2-0.5
			c0-0.2-0.1-0.4,0-0.6c0.2-0.3,0.4-0.7,0.6-1c0.2-0.4,0.6-0.2,0.8-0.5c0.2-0.2,0.3-0.8,0.7-0.4c0.3,0.3,0.6,0.5,0.9,0.8
			c0.1,0.1,0.2,0.3,0.4,0.7c0.1,0.1,0,0.6,0.1,0.7c0.1,0,0.3-0.5,0.3-0.5c0.1-0.2,0-0.6,0.1-0.7c0-0.1,0.3,0,0.2-0.2
			c0-0.1-0.3-0.3-0.3-0.3c0,0-0.7-0.6-0.7-0.6c-0.2-0.2-0.7-0.4-0.5-0.8c0.3-0.5,0.4-0.3,0.7,0c0.3,0.2,0.6,0.5,0.8,0.7
			c0.3,0.2,0.4,0.6,0.3,1c0,0.3,0.5,1,0.7,0.8c0.3-0.2,0-0.9,0.2-1.2c0.2-0.1,0.6-0.3,0.5-0.7c0-0.1-0.1-0.3,0-0.5
			c0-0.2,0.1-0.3,0.2-0.4c0.1-0.2,0.3-0.9,0.5-0.9c0.2-0.1,0.6,0.5,0.9,0.1c0.1-0.2,0.2-0.5,0.6-0.6c0.4-0.1,0.5,0.1,0.8,0.3
			c0.2,0.2,0.5,0.3,0.6,0.7c0,0.3,0.1,1-0.3,1.1c-0.2,0.1-0.6,0.1-0.9,0.2c-0.3,0.1-0.4-0.4-0.7-0.4c-0.2,0.1-0.6,0-0.7,0.3
			c-0.2,0.6-0.5,0.7-0.7,1.1c-0.1,0.2-0.2,0.9,0,1c0.3,0.3,0.8,0,1.2,0c0.9-0.2,1.3,0.9,1.1,1.5c-0.1,0.4-1.4,0.7-1.7,0.5
			c-0.3-0.1-0.4-0.4-0.8-0.3c-0.3,0.1-0.8,0.1-1,0.4c-0.2,0.3-0.3,0.7-0.6,0.8c-0.3,0.1-0.8,0.3-1,0.1c-0.3-0.1-0.5-0.4-0.7-0.6
			c-0.3-0.3-0.2-0.8-0.5-1.1c-0.3-0.2-0.6-0.1-0.9,0c-0.3,0.1-0.7,0.1-1,0.3c-0.2,0.2-0.3,0.7-0.5,0.9c-0.2,0.2-0.7,0.2-1,0.3
			c-0.5,0.1-1,1.2-0.9,1.8c0.1,0.9-0.3,1.3-0.7,2c-0.3,0.5-0.9,1.2-0.8,1.8c0.1,0.8,0.2,1.6,0.4,2.4c0.1,0.6,1,1.1,1.3,1.3
			c0.3,0.3,0.6,0.5,0.9,0.8c0.2,0.2,0.4,0.4,0.7,0.4c0.5,0,1.3-0.2,1.6-0.7c0.2-0.4,0.3-0.6,0.7-0.7c0.3-0.1,0.7-0.3,1,0
			c0.5,0.4,0.9,0.7,1,1.4l0.4,2.8c0.1,0.5,0.1,1.7,0.4,2c0.2,0.2,0.5,0.3,0.7,0.6c0.1,0.2,0.1,0.5,0.2,0.8c0.1,1,0.3,1.9,0.4,2.9
			c0.1,0.7,0.2,1,0.7,1.4c0.4,0.4,1,1.1,1.5,1c0.7-0.2,1.4-0.3,2.1-0.5c0.5-0.1,0.9-1.1,1.1-1.6c0.2-0.3,0.1-0.6,0-0.9l-0.2-1.5
			c-0.1-0.7,0.5-1.4,0.8-2c0.1-0.2,0.4-0.5,0.3-0.9c-0.1-0.4-0.1-0.9-0.2-1.3c-0.1-0.3-0.1-0.7-0.3-0.9c-0.3-0.3-0.6-0.4-0.6-0.9
			c-0.1-0.3-0.2-0.8,0-1.1l0.6-1.1c0.2-0.3,0.3-0.7,0.6-0.8c0.4-0.1,0.6-0.7,0.7-1c0.2-0.3,0.4-0.6,0.3-1.1c0-0.2-0.1-1.3-0.2-1.3
			c-0.1,0-0.5,0.8-0.6,0.9c-0.2,0.4-0.5,0.4-0.8,0.5c-0.5,0.1-1.3-0.8-1.7-1.2c-0.2-0.2-0.5-0.3-0.5-0.7c-0.1-0.4-0.1-0.8-0.2-1.3
			c-0.1-0.7-1.1-1.2-1.5-1.5c-0.2-0.2-0.3-0.5-0.3-0.8c-0.1-0.4-0.3-1-0.1-1.4c0.2-0.4,0.5-0.3,0.7,0.1c0.2,0.4,0.2,0.9,0.2,1.3
			c0.1,0.8,0.8,0.9,1.2,1.4c0.5,0.5,0.1,1.7,0.6,2.2c0.2,0.2,0.5,0.5,0.8,0.6c0.2,0.1,0.8,0,1-0.2c0.2-0.1,0.3-0.4,0.4-0.6
			c0.2-0.4,0.5-0.9,0.7-1.3c0.3-0.6,0.8-1.2,0.6-2c-0.2-1-1.2-0.4-1.7-0.8c-0.3-0.3-0.6-0.5-0.9-0.8c-0.1-0.1-0.3-0.2-0.2-0.4
			c0-0.2,0.3-0.5,0.4-0.4c0.2,0.1,0.5,0.5,0.7,0.6c0.3,0.2,0.7,0,1,0c0.3-0.1,0.6-0.2,0.9,0c0.3,0.3,0.5,0.2,0.9,0.1l1-0.2
			c0.3-0.1,0.6,0.3,0.9,0.5c0.2,0.2,0.5,0.4,0.5,0.7c0.1,0.5,0.1,0.9,0.2,1.4c0,0.3,0.1,0.6,0.3,0.8c0.3,0.3,0.6,0.5,0.9,0.8
			c0.3,0.2,0.4,0.4,0.7,0c0.2-0.4,0.2-0.8,0.1-1.3c-0.1-0.7,0.6-1.5,0.9-2.1c0.1-0.2,0.3-0.6,0.4-0.8c0.2-0.2,0.8-0.4,1.1-0.2
			c0.3,0.1,0.5,0.4,0.8,0.7c0.1,0.1,0.2,0.2,0.3,0.2c0.2,0.2,0.4,0,0.6,0c0.3,0,0.5,0.2,0.7,0.4C62.1,36.4,62.5,36.7,62.5,36.7"/>
	</g>
</g>
</svg>
