<?xml version="1.0" encoding="utf-8"?>
<!-- Generator: Adobe Illustrator 24.0.3, SVG Export Plug-In . SVG Version: 6.00 Build 0)  -->
<svg version="1.1" id="Layer_1" focusable="false" xmlns="http://www.w3.org/2000/svg" xmlns:xlink="http://www.w3.org/1999/xlink"
	 x="0px" y="0px" viewBox="0 0 252.3 85" style="enable-background:new 0 0 252.3 85;" xml:space="preserve">
<style type="text/css">
	.st0{fill-rule:evenodd;clip-rule:evenodd;fill:#FFFFFF;}
</style>
<g>
	<path class="st0" d="M1.8,30.9h10.7v33.2h9V30.9h9.9l2.9-8.4H1.8V30.9z M59,30.9l3.1-8.4H38.2v41.6h23.1v-8.4H47.2V47h12.3v-8.4
		H47.2v-7.8L59,30.9z M87.4,40.3c-0.1,0.2-0.3,0.4-0.4,0.7c-0.1-0.1-0.1-0.2-0.2-0.3L74.7,22.4h-7.9v41.6h9V39.8l8.8,13.3h5.1
		l8.2-13.2v24.2h9V22.4h-8.1C98.6,22.4,87.4,40.3,87.4,40.3z M134.5,30.9l3.1-8.4h-23.8v41.6h23.1v-8.4h-14.2V47h12.3v-8.4h-12.3
		v-7.8L134.5,30.9z M169,47.4l-0.4-0.6l-18.2-24.4h-8.1v41.6h9V38.6c0.1,0.1,0.2,0.2,0.3,0.3l18.8,25.1h7.6V22.4h-9V47.4z
		 M240.5,39.2c-3.8-2.2-6.1-3.6-6.1-6c0-2.4,2.7-2.8,4.4-2.8c2.4,0,5.1,0.8,7.3,2.2l0.1,0.1l2.9-8l-1.1-0.5c-2.8-1.4-6-2.1-9.5-2.1
		c-7.8,0-13.2,4.8-13.2,11.6c0,3.2,1,5.9,3.1,8.1c2,2.2,4.6,3.7,7,5c3.8,2.2,6.1,3.6,6.1,6.1c0,2.6-3.3,3.3-5.1,3.3
		c-3.6,0-6.3-1.8-7-2.3l-1.8-1.3l-3,8.3l0.3,0.2c3.5,2.3,7.3,3.5,11.7,3.5c8.2,0,14.2-5.1,14.2-12.1
		C250.8,45.2,245.1,41.9,240.5,39.2 M202.4,56.3c-7,0-11.3-4.9-11.3-12.8c0-7.9,4.3-12.8,11.3-12.8c7,0,11.3,4.9,11.3,12.8
		C213.7,51.3,209.3,56.3,202.4,56.3 M202.4,22.1c-5.7,0-11,2.1-14.8,6l0,0c-3.8,3.9-5.8,9.4-5.8,15.4c0,6.4,2.3,12,6.5,15.9
		c3.7,3.4,8.6,5.2,14.1,5.2c5.8,0,10.8-2,14.6-5.7c3.9-3.9,6.1-9.4,6.1-15.6c0-5.7-1.8-10.8-5.2-14.7
		C214.1,24.4,208.6,22.1,202.4,22.1"/>
</g>
</svg>
