<?xml version="1.0" encoding="utf-8"?>
<!-- Generator: Adobe Illustrator 24.0.3, SVG Export Plug-In . SVG Version: 6.00 Build 0)  -->
<svg version="1.1" id="Layer_1" xmlns="http://www.w3.org/2000/svg" xmlns:xlink="http://www.w3.org/1999/xlink" x="0px" y="0px"
	 viewBox="0 0 32 32" style="enable-background:new 0 0 32 32;" xml:space="preserve">
<style type="text/css">
	.st0{fill:none;stroke:#CED4D9;stroke-miterlimit:10;}
</style>
<path class="st0" d="M0.5,19.5c0,3.4,2.8,6.1,6.1,6.1h18.8c3.4,0,6.1-2.8,6.1-6.1c0-3-2.2-5.7-5.2-6c0-0.3,0.1-0.4,0.1-0.7
	c0-2.2-1.7-3.8-3.8-3.8c-0.9,0-1.9,0.4-2.5,0.9c-1.2-2.8-2.8-5.3-7-5.3c-5.3,0-7.8,4.1-7.8,8.5c0,0.1,0,0.4,0,0.7
	C2.6,14,0.5,16.4,0.5,19.5z"/>
</svg>
