<?xml version="1.0" encoding="utf-8"?>
<!-- Generator: Adobe Illustrator 24.0.3, SVG Export Plug-In . SVG Version: 6.00 Build 0)  -->
<svg version="1.1" id="Layer_1" xmlns="http://www.w3.org/2000/svg" xmlns:xlink="http://www.w3.org/1999/xlink" x="0px" y="0px"
	 viewBox="0 0 32 32" style="enable-background:new 0 0 32 32;" xml:space="preserve">
<style type="text/css">
	.st0{fill:#FFFFFF;}
</style>
<path class="st0" d="M32,29.7c-0.9-2.6-2-5.5-2.1-6.2c1.4-2.3,2.1-4.9,2.1-7.5c0-8.5-7.2-15.3-16-15.3C7.1,0.7,0,7.5,0,16
	s7.1,15.3,16,15.3c3.1,0,6.1-0.8,8.7-2.4l6.6,1.7c0.3,0.1,0.5,0,0.6-0.2C32.1,30.2,32.1,29.9,32,29.7z M10.6,9.6h-0.3
	C9,9.6,8.7,10.1,8.7,11c0,0.4,0.1,0.8,0.1,1.2c0.1,0.4,0.1,0.8,0.1,1.3c0,1.1-0.5,1.6-1.3,1.8c0.8,0.2,1.3,0.8,1.3,1.9
	c0,0.5-0.1,0.9-0.1,1.3c-0.1,0.5-0.1,0.9-0.1,1.3c0,1,0.4,1.5,1.4,1.5h0.3v0.9H9.9c-1.5,0-2.6-0.6-2.6-2.3c0-0.5,0.1-0.9,0.1-1.4
	c0.2-0.5,0.3-0.9,0.3-1.4s-0.2-1.3-1.5-1.3V15c1.3,0,1.5-0.7,1.5-1.3c0-0.5-0.1-1-0.1-1.4c-0.1-0.5-0.1-0.9-0.1-1.4
	c0-1.6,1-2.2,2.6-2.2h0.4C10.6,8.7,10.6,9.6,10.6,9.6z M12.9,16.6c-0.5,0-0.9-0.4-0.9-0.9s0.4-0.9,0.9-0.9c0.5,0,0.9,0.4,0.9,0.9
	S13.4,16.6,12.9,16.6z M16.2,16.6c-0.5,0-0.9-0.4-0.9-0.9s0.4-0.9,0.9-0.9c0.5,0,0.9,0.4,0.9,0.9S16.7,16.6,16.2,16.6z M19.5,16.6
	c-0.5,0-0.9-0.4-0.9-0.9s0.4-0.9,0.9-0.9c0.5,0,0.9,0.4,0.9,0.9S20.1,16.6,19.5,16.6z M26.4,15.8c-1.3,0-1.5,0.7-1.5,1.3
	c0,0.5,0.1,0.9,0.1,1.4s0.1,0.9,0.1,1.4c0,1.7-1.1,2.3-2.6,2.3h-0.4v-0.9h0.3c1,0,1.5-0.5,1.5-1.5c0-0.4-0.1-0.8-0.1-1.2
	c-0.1-0.4-0.1-0.8-0.1-1.3c0-1.1,0.5-1.7,1.3-1.9c-0.7-0.2-1.3-0.7-1.3-1.8c0-0.5,0.1-0.9,0.1-1.3c0.1-0.4,0.1-0.8,0.1-1.2
	c0-0.9-0.4-1.4-1.4-1.5h-0.3v-1h0.3c1.5,0,2.6,0.7,2.6,2.2c0,0.5-0.1,0.9-0.1,1.4c-0.1,0.5-0.1,1-0.1,1.4c0,0.6,0.2,1.3,1.5,1.3
	C26.4,14.9,26.4,15.8,26.4,15.8z"/>
</svg>
