<?xml version="1.0" encoding="utf-8"?>
<!-- Generator: Adobe Illustrator 24.0.3, SVG Export Plug-In . SVG Version: 6.00 Build 0)  -->
<svg version="1.1" xmlns="http://www.w3.org/2000/svg" xmlns:xlink="http://www.w3.org/1999/xlink" x="0px" y="0px"
	 viewBox="0 0 32 32" style="enable-background:new 0 0 32 32;" xml:space="preserve">
<style type="text/css">
	.st0{enable-background:new    ;}
	.st1{fill:#FFFFFF;}
	.st2{fill:#CED4D9;}
</style>
<g id="Layer_1">
	<g id="Layer_1_xA0_Image_1_">
	</g>
	<g id="Rounded_Rectangle_1_1_" class="st0">
	</g>
	<g id="Rounded_Rectangle_1_copy_1_" class="st0">
	</g>
	<g id="API">
	</g>
	<g id="Rounded_Rectangle_2_1_" class="st0">
		<g>
			<g id="Rounded_Rectangle_1_copy">
				<g>
					<path class="st1" d="M27.9,0.2H4c-1.4,0-2.4,1.1-2.4,2.4v1.9h28.7V2.6C30.3,1.4,29.3,0.2,27.9,0.2z M4.2,3.3
						C3.8,3.3,3.4,3,3.4,2.5s0.4-0.9,0.8-0.9S5,2,5,2.4C5.2,2.9,4.7,3.3,4.2,3.3z M6.7,3.3c-0.5,0-0.9-0.4-0.9-0.9s0.4-0.8,0.9-0.8
						S7.5,2,7.5,2.4C7.5,2.9,7.2,3.3,6.7,3.3z M9.1,3.3C8.6,3.3,8.3,3,8.3,2.5s0.4-0.8,0.8-0.8S9.9,2,9.9,2.5S9.6,3.3,9.1,3.3z"/>
				</g>
			</g>
			<g>
				<polygon class="st1" points="11.6,12.3 10.5,15.4 12.8,15.4 				"/>
				<path class="st1" d="M25.8,0.2H6.1c-2.4,0-4.4,1.7-4.4,3.9v23.8c0,2.1,1.9,3.9,4.4,3.9h19.9c2.4,0,4.4-1.7,4.4-3.9V4.1
					C30.2,2,28.2,0.2,25.8,0.2z M23.4,25.5c0,0.3-0.2,0.5-0.5,0.5h-5.8c-0.3,0-0.5-0.2-0.5-0.5s0.2-0.5,0.5-0.5h5.8
					C23.3,25,23.5,25.2,23.4,25.5z M23,23.6H12.3c-0.3,0-0.5-0.2-0.5-0.5s0.2-0.5,0.5-0.5h10.6c0.4,0,0.6,0.2,0.6,0.5
					C23.5,23.4,23.3,23.6,23,23.6z M22.9,21.1H7.4c-0.3,0-0.5-0.2-0.5-0.5s0.2-0.5,0.5-0.5H23c0.3,0,0.5,0.2,0.5,0.5
					S23.3,21.1,22.9,21.1z M8.4,17.6l2.5-6.5h1.4l2.5,6.5h-1.3L13,16.3h-3l-0.5,1.3H8.4z M15.6,17.5v-6.4h2.8c0.7,0,1.2,0.2,1.5,0.6
					c0.4,0.4,0.6,0.9,0.6,1.4c0,0.6-0.2,1-0.6,1.4s-0.9,0.6-1.5,0.6h-1.7v2.4H15.6z M21.5,17.6v-6.5h1.1v6.5H21.5z M25.8,4.3H2.5
					V4.1c0-1.6,1.3-2.9,2.9-2.9h17.5c1.6,0,2.9,1.3,2.9,2.9V4.3z"/>
				<path class="st1" d="M19.1,13.9c0.2-0.2,0.3-0.4,0.3-0.7s-0.1-0.6-0.3-0.7c-0.2-0.2-0.5-0.3-0.8-0.3h-1.6v2h1.6
					C18.6,14.2,18.9,14.1,19.1,13.9z"/>
			</g>
		</g>
	</g>
</g>
<g id="Layer_2">
	<g id="Rounded_Rectangle_2_2_" class="st0">
		<g>
			<g id="Rounded_Rectangle_1">
				<g>
					<path class="st2" d="M26.2,0.2H5.6c-2.1,0-3.9,1.7-3.9,3.9V28c0,2.1,1.7,3.9,3.9,3.9h20.8c2.1,0,3.9-1.7,3.9-3.9V4.2
						C30.3,2,28.4,0.2,26.2,0.2z M29.2,28c0,1.6-1.3,2.9-2.9,2.9H5.6c-1.6,0-2.9-1.3-2.9-2.9V4.2c0-1.6,1.3-2.9,2.9-2.9h20.8
						c1.6,0,2.9,1.3,2.9,2.9V28H29.2z"/>
				</g>
			</g>
			<g id="Rounded_Rectangle_1_copy_2_">
				<g>
					<path class="st2" d="M27.9,0.2H4c-1.4,0-2.4,1.1-2.4,2.4v1.9h28.7V2.7C30.4,1.4,29.3,0.2,27.9,0.2z M4.2,3.3
						C3.8,3.3,3.3,3,3.3,2.4s0.5-0.8,0.9-0.8S5.1,2,5.1,2.5S4.7,3.3,4.2,3.3z M6.6,3.3C6.2,3.3,5.8,3,5.8,2.5s0.4-0.9,0.8-0.9
						S7.5,2,7.5,2.5C7.5,3,7.2,3.3,6.6,3.3z M9.1,3.3C8.6,3.3,8.2,3,8.2,2.4s0.4-0.9,0.9-0.9S10,1.8,10,2.4S9.6,3.3,9.1,3.3z"/>
				</g>
			</g>
			<g class="st0">
				<path class="st2" d="M8.4,17.7l2.6-6.5h1.4l2.5,6.5h-1.3l-0.5-1.3h-3l-0.5,1.3H8.4z M10.5,15.4h2.3l-1.2-3.1L10.5,15.4z"/>
				<path class="st2" d="M15.6,17.7v-6.5h2.9c0.7,0,1.2,0.2,1.5,0.6c0.4,0.4,0.6,0.9,0.6,1.5s-0.2,1.1-0.6,1.4
					c-0.4,0.4-0.9,0.6-1.5,0.6h-1.7v2.4H15.6z M16.7,14.2h1.6c0.3,0,0.6-0.1,0.8-0.3c0.2-0.2,0.3-0.4,0.3-0.7s-0.1-0.6-0.3-0.7
					c-0.2-0.2-0.5-0.3-0.8-0.3h-1.6V14.2z"/>
				<path class="st2" d="M21.5,17.7v-6.5h1.1v6.5H21.5z"/>
			</g>
			<g id="Rounded_Rectangle_2">
				<g>
					<path class="st2" d="M23.5,20.6c0-0.3-0.2-0.5-0.5-0.5H7.4c-0.3,0-0.5,0.2-0.5,0.5s0.2,0.5,0.5,0.5h15.5
						C23.3,21.1,23.5,20.9,23.5,20.6z M23,22.6H12.3c-0.3,0-0.5,0.2-0.5,0.5s0.2,0.5,0.5,0.5h10.8c0.3,0,0.5-0.2,0.5-0.5
						C23.5,22.8,23.3,22.6,23,22.6z M23,25.1h-5.9c-0.3,0-0.5,0.2-0.5,0.5s0.2,0.5,0.5,0.5H23c0.3,0,0.5-0.2,0.5-0.5
						S23.3,25.1,23,25.1z"/>
				</g>
			</g>
		</g>
	</g>
</g>
</svg>
