<?xml version="1.0" encoding="utf-8"?>
<!-- Generator: Adobe Illustrator 24.0.3, SVG Export Plug-In . SVG Version: 6.00 Build 0)  -->
<svg version="1.1" id="Layer_1" xmlns="http://www.w3.org/2000/svg" xmlns:xlink="http://www.w3.org/1999/xlink" x="0px" y="0px"
	 viewBox="0 0 32 32" style="enable-background:new 0 0 32 32;" xml:space="preserve">
<style type="text/css">
	.st0{fill:#FFFFFF;}
</style>
<g>
	<path class="st0" d="M31.7,5.7l-2.4-2.4c-0.6-0.6-1.5-0.6-2.1,0l-9.6,9.6c-0.6,0.6-1.5,0.6-2,0.2c-0.6-0.6-0.8-1.5-0.5-2.3
		c0.5-1.4,0.8-3.9-1.4-6.8C11.4,1.1,9,1.1,7.2,1.1C6.6,1.3,6.3,1.9,6.9,2.5l2.9,3.2c0.6,0.6,0.5,1.5-0.2,2l-2.9,2.6
		c-0.6,0.6-1.5,0.5-2.1-0.2L1.5,6.9C0.8,6.3,0.1,6.4,0.1,7.3c-0.2,1.4-0.2,3.2,1.2,5c2.6,3.6,5.3,3.6,6.9,3.3c0.8-0.2,1.8,0,2.3,0.6
		l2.3,2.1c0.6,0.6,0.6,1.4,0,2l-4.2,4.1C8,25,7.4,25.2,6.9,25c-0.5-0.3-1.1,0.2-1.4,0.8l-1.8,2.9c-0.5,0.8-0.5,1.5-0.2,2
		c0.5,0.5,1.1,0.5,1.8,0l3.2-2.1c0.8-0.5,1.1-1.1,0.8-1.4C9,26.7,9.1,26,9.7,25.5l4.2-4.2c0.6-0.6,1.5-0.6,2.1,0l9.5,8.9
		c0.6,0.6,1.5,0.5,2-0.2l2-2.1c0.6-0.6,0.5-1.5-0.2-2L21.9,19c-0.6-0.6-0.6-1.4-0.2-2L31,7.2C32.1,7.2,32.1,6.1,31.7,5.7z"/>
	<circle class="st0" cx="26.3" cy="26.9" r="1.2"/>
</g>
</svg>
