<?xml version="1.0" encoding="utf-8"?>
<!-- Generator: Adobe Illustrator 24.0.3, SVG Export Plug-In . SVG Version: 6.00 Build 0)  -->
<svg version="1.1" id="Layer_1" xmlns="http://www.w3.org/2000/svg" xmlns:xlink="http://www.w3.org/1999/xlink" x="0px" y="0px"
	 viewBox="0 0 32 32" style="enable-background:new 0 0 32 32;" xml:space="preserve">
<style type="text/css">
	.st0{fill:#FFFFFF;}
</style>
<path class="st0" d="M26.4,0H3.5C1.4,0,0,1.6,0,3.5v25C0,30.4,1.6,32,3.5,32h16c-1.9-1.6-3-4-3-6.7c0-5,3.8-8.8,8.8-8.8
	c1.8,0,3.4,0.5,4.6,1.4V3.2C29.9,1.6,28.4,0,26.4,0z M16.9,17H3.8c-0.3,0-0.6-0.5-0.6-1.1c0-0.5,0.2-1.1,0.6-1.1h13.1
	c0.3,0,0.6,0.5,0.6,1.1C17.4,16.7,17.1,17,16.9,17z M24,12H4.1C3.6,12,3,11.5,3,10.9s0.5-1.1,1.1-1.1h19.8c0.5,0,1.1,0.5,1.1,1.1
	S24.4,12,24,12z M24,6.9H4.1C3.6,6.9,3,6.4,3,5.8c0-0.5,0.5-1.1,1.1-1.1h19.8c0.5,0,1.1,0.5,1.1,1.1S24.4,6.9,24,6.9z"/>
<path class="st0" d="M25,19.3c-3.4,0-6.2,2.8-6.2,6.2s2.8,6.2,6.2,6.2s6.2-2.8,6.2-6.2S28.4,19.3,25,19.3z M24.8,29.6
	c-0.5,0-0.8-0.4-0.8-0.8c0-0.5,0.4-0.8,0.8-0.8c0.5,0,0.8,0.4,0.8,0.8S25.3,29.6,24.8,29.6z M25.6,26.5c-0.2,0.4-0.2,0.8-0.8,0.8
	c-0.4,0-0.6-0.4-0.6-0.7c0-1.2,1.8-1.5,1.8-2.4c0-0.5-0.4-0.9-1-0.9c-1.3,0-0.8,1.3-1.8,1.3c-0.4,0-0.7-0.2-0.7-0.6
	c0-1,1.1-1.9,2.3-1.9c1.3,0,2.5,0.6,2.5,2C27.4,25.5,26,26,25.6,26.5z"/>
</svg>
