<?xml version="1.0" encoding="utf-8"?>
<!-- Generator: Adobe Illustrator 24.0.3, SVG Export Plug-In . SVG Version: 6.00 Build 0)  -->
<svg version="1.1" id="Layer_2_1_" xmlns="http://www.w3.org/2000/svg" xmlns:xlink="http://www.w3.org/1999/xlink" x="0px" y="0px"
	 viewBox="0 0 32 32" style="enable-background:new 0 0 32 32;" xml:space="preserve">
<style type="text/css">
	.st0{fill:#CED4D9;}
</style>
<g>
	<path class="st0" d="M29,0H3C2,0,1,1,1,2.1v27.8c0,1,1,2.1,2,2.1h18.8v-8.5c0-0.6,0.4-1,1-1H31V2.1C31,1.1,30,0,29,0z M20.8,31H3
		c-0.4,0-1-0.6-1-1.1V2.1C2,1.5,2.6,1,3,1h26c0.4,0,1,0.6,1,1.1v19.4h-7.2c-1.2,0-2,0.8-2,2V31z"/>
	<path class="st0" d="M24,14.4c1.4,0,2.7-1.2,2.7-2.6c0-1.5-1.2-2.7-2.7-2.7s-2.7,1.2-2.7,2.7c0.1,0.1,0.1,0.2,0.1,0.3l-3.8,3.8
		h-0.4c-0.2,0-0.4,0-0.5,0.1l-1.4-1.4v-0.4c0-1.5-1.2-2.7-2.7-2.7s-2.7,1.2-2.7,2.7c0,0.1,0,0.3,0.1,0.4L8.5,16
		c-0.2,0-0.3-0.1-0.5-0.1c-1.5,0-2.7,1.2-2.7,2.7s1.2,2.7,2.7,2.7s2.7-1.2,2.7-2.7v-0.4l1.5-1.6c0.1,0,0.3,0.1,0.5,0.1h0.4l1.4,1.4
		v0.4c0,1.5,1.2,2.7,2.7,2.7s2.7-1.2,2.7-2.7c0-0.2,0-0.3-0.1-0.4l3.7-3.8C23.7,14.3,23.8,14.4,24,14.4z M18.7,17.8
		c0.1,0.2,0.2,0.5,0.2,0.7c0,0.9-0.8,1.7-1.7,1.7c-0.9,0-1.7-0.8-1.7-1.7c0-0.3,0.1-0.5,0.2-0.7l-2.3-2.3c-0.2,0.1-0.4,0.2-0.7,0.2
		s-0.5-0.1-0.8-0.2l-2.3,2.4c0.1,0.2,0.1,0.4,0.1,0.7c0,0.9-0.8,1.7-1.7,1.7s-1.7-0.8-1.7-1.7c0-0.9,0.8-1.7,1.7-1.7
		c0.3,0,0.5,0.1,0.8,0.2l2.3-2.3c-0.1-0.2-0.2-0.5-0.2-0.7c0-0.9,0.8-1.7,1.7-1.7c0.9,0,1.7,0.8,1.7,1.7c0,0.3-0.1,0.5-0.2,0.7
		l2.3,2.3c0.2-0.1,0.5-0.2,0.8-0.2s0.5,0.1,0.7,0.2l4.7-4.7c-0.1-0.2-0.2-0.4-0.2-0.7c0-0.9,0.8-1.7,1.7-1.7c0.9,0,1.7,0.8,1.7,1.7
		c0,0.8-0.8,1.6-1.7,1.6c-0.3,0-0.6-0.1-0.8-0.2L18.7,17.8z"/>
	<path class="st0" d="M24,31.6l7-7h-7V31.6z M25,25.6h3.6L25,29.2V25.6z"/>
</g>
</svg>
